<svg xmlns="http://www.w3.org/2000/svg" viewBox="0 0 64 64">
  <defs>
    <linearGradient id="bg" x1="6" y1="6" x2="58" y2="58" gradientUnits="userSpaceOnUse">
      <stop offset="0" stop-color="#7b6be0"/>
      <stop offset="1" stop-color="#3f6fd1"/>
    </linearGradient>
  </defs>
  <rect x="4" y="4" width="56" height="56" rx="16" fill="url(#bg)"/>
  <rect x="4.5" y="4.5" width="55" height="55" rx="15.5" fill="none" stroke="#fff" stroke-opacity=".18"/>
  <path d="M21 31a9 9 0 0 1 17.4-3.2A7 7 0 1 1 44 41H22a6 6 0 0 1-1-11.9z" fill="#fff" fill-opacity=".22"/>
  <path d="M25.5 34h13a4 4 0 0 1 3.8 2.8l1 3.4a2.2 2.2 0 0 1-3.8 2l-1.8-1.7h-11.4l-1.8 1.7a2.2 2.2 0 0 1-3.8-2l1-3.4a4 4 0 0 1 3.8-2.8z" fill="#fff"/>
  <path d="M27 36.6v2.8M25.6 38h2.8" stroke="#3f6fd1" stroke-width="1.4" stroke-linecap="round"/>
  <circle cx="36.6" cy="37.2" r=".95" fill="#3f6fd1"/><circle cx="38.4" cy="39" r=".95" fill="#3f6fd1"/>
</svg>
