<svg xmlns="http://www.w3.org/2000/svg" viewBox="0 0 64 64">
  <defs>
    <linearGradient id="s" x1="6" y1="6" x2="58" y2="58" gradientUnits="userSpaceOnUse">
      <stop offset="0" stop-color="#48484c"/>
      <stop offset="1" stop-color="#1c1b1f"/>
    </linearGradient>
    <linearGradient id="c" x1="20" y1="20" x2="44" y2="44" gradientUnits="userSpaceOnUse">
      <stop offset="0" stop-color="#8fb0ec"/>
      <stop offset="1" stop-color="#678fd9"/>
    </linearGradient>
  </defs>
  <rect x="4" y="4" width="56" height="56" rx="16" fill="url(#s)"/>
  <rect x="4.5" y="4.5" width="55" height="55" rx="15.5" fill="none" stroke="#fff" stroke-opacity=".12"/>
  <g stroke="#fff" stroke-opacity=".55" stroke-width="2.6" stroke-linecap="round">
    <path d="M26 14v6M32 14v6M38 14v6M26 44v6M32 44v6M38 44v6M14 26h6M14 32h6M14 38h6M44 26h6M44 32h6M44 38h6"/>
  </g>
  <rect x="19" y="19" width="26" height="26" rx="6" fill="url(#c)"/>
  <path d="m25.5 32.5 4.5 4.5 8.5-9" fill="none" stroke="#fff" stroke-width="3.2" stroke-linecap="round" stroke-linejoin="round"/>
</svg>
